<svg width="25" height="21" viewBox="0 0 25 21" fill="none" xmlns="http://www.w3.org/2000/svg">
<path fill-rule="evenodd" clip-rule="evenodd" d="M4.22702 20.613L15.0546 14.6035L12.1323 12.9815L2.85025 18.133L9.25891 7.57179L12.1323 2.83641L13.2273 4.64153L13.5581 5.18597L15.0302 7.61256L16.426 9.86814L18.8879 8.50235L17.512 6.23513L16.0393 3.808L15.7097 3.26423C14.701 1.60154 14.1039 0 12.1321 0C11.1118 0 10.2362 0.493208 9.70711 1.36473L1.28816 15.2397C1.28816 15.5825 -1.25545 17.9542 0.805935 20.0995C1.71055 21.0395 3.08626 21.2457 4.22689 20.6127L4.22702 20.613Z" fill="#61A375"/>
<path fill-rule="evenodd" clip-rule="evenodd" d="M18.2095 12.8528L21.4142 18.1331L15.6696 14.945L12.7472 16.5671L20.0373 20.6131C21.1778 21.2461 22.5535 21.0398 23.4583 20.0999C24.3623 19.1599 24.5159 17.7767 23.8391 16.6616L20.6915 11.4752L19.2193 9.0481L16.7627 10.4118L16.7373 10.4261L18.2095 12.8531V12.8528Z" fill="#D7B56D"/>
</svg>
